HIERARCHY
ROOT Hip
{
  OFFSET 0.0 0.0 0.0
  CHANNELS 6 Xposition Yposition Zposition Xrotation Yrotation Zrotation
  JOINT LowerSpine
  {
    OFFSET 0.0 0.061367 -0.03653
    CHANNELS 3 Xrotation Yrotation Zrotation
    JOINT MiddleSpine
    {
      OFFSET 0.0 0.056002 0.002633
      CHANNELS 3 Xrotation Yrotation Zrotation
      JOINT Chest
      {
        OFFSET 0.0 0.069296 -0.013882
        CHANNELS 3 Xrotation Yrotation Zrotation
        JOINT Neck
        {
          OFFSET 0.0 0.156156 -0.002923
          CHANNELS 3 Xrotation Yrotation Zrotation
          JOINT Head
          {
            OFFSET 0.0 0.088183 0.023986
            CHANNELS 3 Xrotation Yrotation Zrotation
            End Site
            {
              OFFSET 1e-06 0.123215 0.003678
            }
          }
        }
        JOINT LClavicle
        {
          OFFSET 0.014189 0.150698 0.046467
          CHANNELS 3 Xrotation Yrotation Zrotation
          JOINT LShoulder
          {
            OFFSET 0.082893 0.021616 -0.034976
            CHANNELS 3 Xrotation Yrotation Zrotation
            JOINT LForearm
            {
              OFFSET 0.195645 -0.000695 -0.001695
              CHANNELS 3 Xrotation Yrotation Zrotation
              JOINT LHand
              {
                OFFSET 0.163209 0.000474 -0.000977
                CHANNELS 3 Xrotation Yrotation Zrotation
                End Site
                {
                  OFFSET 0.0 0.006864 0.0
                }
              }
            }
          }
        }
        JOINT RClavicle
        {
          OFFSET -0.014189 0.150698 0.046467
          CHANNELS 3 Xrotation Yrotation Zrotation
          JOINT RShoulder
          {
            OFFSET -0.082908 0.021619 -0.034982
            CHANNELS 3 Xrotation Yrotation Zrotation
            JOINT RForearm
            {
              OFFSET -0.195645 -0.000695 -0.001695
              CHANNELS 3 Xrotation Yrotation Zrotation
              JOINT RHand
              {
                OFFSET -0.163209 0.000474 -0.000977
                CHANNELS 3 Xrotation Yrotation Zrotation
                End Site
                {
                  OFFSET 0.0 0.006864 0.0
                }
              }
            }
          }
        }
      }
    }
  }
  JOINT RThigh
  {
    OFFSET -0.072558 0.02774 -0.005953
    CHANNELS 3 Xrotation Yrotation Zrotation
    JOINT RShin
    {
      OFFSET -0.005253 -0.285537 0.0
      CHANNELS 3 Xrotation Yrotation Zrotation
      JOINT RFoot
      {
        OFFSET 0.0 -0.28038 0.0
        CHANNELS 3 Xrotation Yrotation Zrotation
        JOINT RToe
        {
          OFFSET 0.0 -0.030816 0.064441
          CHANNELS 3 Xrotation Yrotation Zrotation
          End Site
          {
            OFFSET 0.0 0.0 0.043231
          }
        }
      }
    }
  }
  JOINT LThigh
  {
    OFFSET 0.072557 0.027741 -0.005953
    CHANNELS 3 Xrotation Yrotation Zrotation
    JOINT LShin
    {
      OFFSET 0.005253 -0.285539 0.0
      CHANNELS 3 Xrotation Yrotation Zrotation
      JOINT LFoot
      {
        OFFSET 0.0 -0.28038 0.0
        CHANNELS 3 Xrotation Yrotation Zrotation
        JOINT LToe
        {
          OFFSET 0.0 -0.030816 0.064441
          CHANNELS 3 Xrotation Yrotation Zrotation
          End Site
          {
            OFFSET 0.0 0.0 0.043231
          }
        }
      }
    }
  }
}
MOTION
Frames: 6
Frame Time: 0.03333333333333333
0.00594 0.5709 0.012481 1.657241 -2.449519 -2.385602 -0.313991 0.144385 0.328178 -0.018087 1.269931 1.036303 -0.498123 1.946805 5.398189 -0.41439 0.00023 -0.212824 0.012707 -0.056185 0.006415 -1.079022 -0.431374 -16.287106 14.845884 -16.634972 -64.504181 3.947937 -22.413898 -1.810129 0.024146 0.051896 -0.047329 0.916813 -0.630069 4.332571 -43.246933 9.376185 30.471498 -37.449562 86.390656 -7.854075 -0.053021 -0.073206 -0.012476 -0.746511 1.21161 -1.099882 0.277727 0.665407 -0.464508 -2.792562 1.452834 0.588365 0.020614 0.140491 0.048925 3.579985 -0.021275 -0.107126 0.013345 1.553275 2.998539 -5.622965 4.12394 2.384828 0.017421 -0.010305 -0.006732 
0.006143 0.570115 0.013386 1.750656 -2.42764 -2.35014 -0.249077 0.12695 0.298824 -0.011247 1.283912 1.035912 -0.443268 2.141494 5.513499 -0.394654 0.003518 -0.212925 0.013722 -0.056639 0.003652 -1.045849 -0.458743 -16.185856 14.570739 -16.710293 -64.459145 3.840019 -22.316259 -1.718095 0.027549 0.056087 -0.051571 0.883593 -0.634085 4.429646 -42.900242 9.056373 31.184404 -37.728928 85.587807 -7.455926 -0.046353 -0.080825 -0.011566 -0.79544 1.209326 -1.014787 0.350803 0.648354 -0.41985 -2.846211 1.456473 0.578441 0.014458 0.149202 0.053539 3.518884 -0.062824 -0.023628 0.080279 1.50675 3.010377 -5.603484 4.057045 2.352917 0.019378 -0.012719 -0.008539 
0.005928 0.569227 0.014181 1.815301 -2.396493 -2.327625 -0.192939 0.112103 0.269188 -0.002612 1.291569 1.02717 -0.39012 2.284606 5.58171 -0.381551 0.005428 -0.214979 0.014604 -0.055196 0.00123 -1.018986 -0.483142 -16.071636 14.348228 -16.723654 -64.331474 3.718386 -22.251875 -1.630854 0.030369 0.059061 -0.054555 0.847317 -0.633352 4.529724 -42.394741 8.659245 31.859346 -37.519043 85.12645 -7.489949 -0.038223 -0.087561 -0.01034 -0.835753 1.176113 -0.968658 0.405735 0.602041 -0.357162 -2.88786 1.460582 0.573217 0.011523 0.157215 0.057263 3.48344 -0.130767 0.075181 0.137763 1.453263 3.010741 -5.583045 3.986136 2.317485 0.020832 -0.013707 -0.009241 
0.005316 0.568357 0.014822 1.859648 -2.384804 -2.320372 -0.142185 0.100552 0.24015 0.009182 1.296174 1.012887 -0.33285 2.400169 5.611507 -0.371681 0.007101 -0.218598 0.015399 -0.052755 -0.000826 -0.996094 -0.50446 -15.951596 14.159252 -16.725834 -64.139832 3.596393 -22.211027 -1.548745 0.032909 0.061209 -0.056815 0.807827 -0.631527 4.632246 -41.786457 8.189031 32.518921 -37.084709 84.84269 -7.719051 -0.02929 -0.09353 -0.008964 -0.877938 1.120321 -0.940837 0.4496 0.534457 -0.284317 -2.913516 1.467706 0.572511 0.010893 0.164865 0.060375 3.480435 -0.191703 0.192361 0.181096 1.41082 2.998774 -5.568789 3.917035 2.282923 0.021752 -0.013835 -0.009189 
0.004345 0.567517 0.01536 1.882306 -2.378714 -2.323769 -0.095936 0.08993 0.212716 0.020568 1.29337 0.997416 -0.273359 2.486418 5.614166 -0.361561 0.009554 -0.222295 0.016187 -0.050084 -0.002463 -0.977052 -0.523647 -15.834561 13.992303 -16.694784 -63.937519 3.47491 -22.209442 -1.465948 0.035232 0.062811 -0.05873 0.767282 -0.626921 4.733076 -41.152042 7.674943 33.141094 -36.462643 84.70639 -8.12916 -0.021347 -0.098377 -0.007722 -0.924247 1.0567 -0.921663 0.490083 0.458032 -0.211549 -2.928732 1.476329 0.575423 0.012389 0.171769 0.062904 3.506876 -0.237868 0.317614 0.229167 1.375706 2.978692 -5.559219 3.854135 2.250881 0.022381 -0.013452 -0.008676 
0.003101 0.566693 0.015708 1.895978 -2.376019 -2.343859 -0.052385 0.079109 0.186227 0.026528 1.278652 0.98407 -0.220527 2.545504 5.598976 -0.347167 0.012641 -0.22152 0.016702 -0.047403 -0.003484 -0.962159 -0.538326 -15.72654 13.821449 -16.659634 -63.751823 3.347013 -22.217775 -1.393833 0.037283 0.063699 -0.060646 0.730388 -0.611742 4.827697 -40.585609 7.213961 33.71394 -36.008469 84.559792 -8.404201 -0.014258 -0.101876 -0.0066 -0.983898 1.008599 -0.899046 0.53856 0.390286 -0.137958 -2.941385 1.48606 0.579049 0.014876 0.176772 0.064841 3.546325 -0.260824 0.440434 0.276126 1.356727 2.96303 -5.562717 3.802258 2.223513 0.022481 -0.011973 -0.00751 
